<?xml version="1.0" encoding="UTF-8" standalone="no"?>
<!DOCTYPE svg PUBLIC "-//W3C//DTD SVG 1.1//EN" "http://www.w3.org/Graphics/SVG/1.1/DTD/svg11.dtd">
<svg xmlns="http://www.w3.org/2000/svg" version="1.1" viewBox="0.00 0.00 1024.00 1024.00">
<path fill="#b89520" d="
  M 521.06 461.71
  A 0.33 0.32 33.2 0 0 520.71 461.78
  Q 460.75 526.62 459.06 528.30
  Q 458.55 528.81 453.10 535.01
  C 446.46 542.55 438.87 550.00 432.96 556.87
  C 426.17 564.74 420.39 570.18 413.06 578.38
  Q 408.02 584.02 399.56 592.73
  C 394.05 598.40 388.00 605.50 381.81 612.10
  Q 351.65 644.25 317.03 681.53
  C 303.97 695.60 289.76 711.38 273.11 729.61
  Q 271.39 731.49 265.45 736.79
  C 245.54 754.58 215.61 755.55 193.69 741.30
  Q 174.31 728.70 168.30 705.98
  C 162.84 685.34 170.54 664.06 185.45 649.72
  C 204.93 630.98 222.01 615.07 238.51 599.43
  Q 262.66 576.52 293.75 547.25
  Q 294.75 546.30 305.70 535.95
  Q 346.43 497.43 400.34 447.10
  Q 439.62 410.44 453.05 397.56
  Q 454.24 396.42 454.69 394.14
  A 0.61 0.58 29.6 0 0 454.53 393.61
  L 428.24 367.33
  A 2.57 2.55 60.7 0 0 425.82 366.64
  C 417.75 368.61 411.78 369.59 403.26 368.80
  Q 400.43 368.54 394.23 366.64
  C 366.04 357.99 354.12 328.38 363.39 301.88
  Q 365.17 296.81 368.29 292.80
  Q 373.89 285.61 377.66 281.91
  C 392.90 266.94 414.38 245.61 433.57 226.15
  Q 448.27 211.26 462.79 197.18
  C 468.94 191.22 476.09 185.38 484.38 182.88
  Q 503.55 177.08 520.79 186.40
  Q 524.10 188.19 531.20 194.08
  Q 538.41 200.05 542.68 209.82
  Q 551.14 229.12 544.11 248.97
  Q 543.42 250.93 545.82 253.47
  Q 546.96 254.68 550.18 257.63
  Q 553.05 260.27 580.75 288.56
  Q 599.78 308.01 639.88 348.12
  Q 649.11 357.36 660.52 368.27
  C 662.34 370.02 664.05 369.98 666.60 369.31
  C 687.73 363.80 708.31 369.70 721.41 387.39
  Q 733.42 403.60 729.97 424.04
  C 727.90 436.35 721.13 445.74 712.54 454.29
  Q 688.04 478.64 678.21 488.78
  Q 669.71 497.55 663.74 503.14
  C 657.26 509.21 650.51 516.82 644.67 522.54
  Q 627.31 539.55 623.98 542.48
  C 619.11 546.76 611.56 551.24 605.13 553.16
  C 571.42 563.19 540.01 533.50 542.79 499.61
  C 543.16 495.06 544.61 491.27 545.40 487.20
  Q 545.79 485.23 543.94 483.31
  Q 536.39 475.45 525.01 464.24
  Q 523.37 462.63 521.06 461.71
  Z
  M 506.1836 222.2384
  A 11.19 11.19 0.0 0 0 490.3585 222.2384
  L 400.5984 311.9985
  A 11.19 11.19 0.0 0 0 400.5984 327.8236
  L 400.7964 328.0216
  A 11.19 11.19 0.0 0 0 416.6215 328.0216
  L 506.3816 238.2615
  A 11.19 11.19 0.0 0 0 506.3816 222.4364
  L 506.1836 222.2384
  Z
  M 520.7181 281.4061
  A 2.84 2.84 0.0 0 0 516.7018 281.3921
  L 457.9210 339.7640
  A 2.84 2.84 0.0 0 0 457.9069 343.7804
  L 569.0419 455.6939
  A 2.84 2.84 0.0 0 0 573.0582 455.7079
  L 631.8390 397.3360
  A 2.84 2.84 0.0 0 0 631.8531 393.3196
  L 520.7181 281.4061
  Z
  M 689.8387 423.9843
  A 11.15 11.15 0.0 0 0 689.8387 408.2158
  L 689.5842 407.9613
  A 11.15 11.15 0.0 0 0 673.8157 407.9613
  L 584.6213 497.1557
  A 11.15 11.15 0.0 0 0 584.6213 512.9242
  L 584.8758 513.1787
  A 11.15 11.15 0.0 0 0 600.6443 513.1787
  L 689.8387 423.9843
  Z
  M 494.52 434.51
  A 0.82 0.80 -51.7 0 0 494.42 433.59
  Q 489.83 428.35 486.03 424.59
  Q 484.27 422.85 482.27 422.28
  A 1.89 1.88 -59.1 0 0 480.42 422.75
  C 465.29 437.67 442.26 458.97 429.83 470.73
  Q 383.84 514.23 345.97 549.56
  Q 306.30 586.56 279.74 611.67
  Q 239.59 649.65 213.55 673.79
  C 205.00 681.72 202.01 693.33 207.47 703.89
  Q 208.45 705.80 210.58 707.72
  C 217.97 714.38 229.56 716.46 237.72 710.65
  Q 242.81 707.01 245.47 704.22
  Q 262.95 685.87 275.08 672.49
  Q 294.06 651.55 304.48 640.55
  C 317.24 627.08 330.52 611.86 345.46 595.76
  Q 394.11 543.34 449.52 483.78
  Q 457.72 474.98 466.08 466.18
  C 474.69 457.14 482.75 447.85 492.47 438.29
  A 0.96 0.80 84.8 0 0 492.56 438.16
  L 494.52 434.51
  Z"/>
<path fill="#b89520" d="
  M 361.22 453.46
  A 0.60 0.60 0.0 0 1 361.22 454.34
  Q 346.64 468.15 341.44 473.35
  C 335.76 479.03 331.35 482.42 323.78 489.06
  A 1.92 1.92 0.0 0 1 321.70 489.36
  C 316.20 486.81 305.97 481.74 298.62 479.40
  C 272.67 471.15 246.99 473.00 221.51 482.74
  Q 214.30 485.49 203.25 491.84
  Q 191.48 498.60 186.05 502.82
  Q 185.88 502.96 177.02 509.53
  Q 171.24 513.82 167.18 514.72
  Q 158.32 516.68 150.85 514.08
  C 141.61 510.86 134.83 501.31 134.53 491.50
  Q 134.35 485.20 137.64 478.67
  Q 139.80 474.39 148.07 467.85
  Q 157.52 460.37 160.16 458.66
  Q 160.51 458.43 172.10 451.06
  Q 179.61 446.29 184.38 444.09
  C 189.97 441.50 195.81 438.11 202.17 435.76
  Q 208.26 433.52 220.30 429.82
  C 233.92 425.64 247.83 423.94 260.50 423.45
  Q 291.22 422.27 321.56 433.70
  Q 340.49 440.83 359.38 452.11
  Q 360.50 452.78 361.22 453.46
  Z"/>
<path fill="#b89520" d="
  M 833.28 545.79
  Q 833.20 545.84 832.35 546.85
  Q 819.70 561.91 801.45 581.20
  Q 786.02 597.51 768.36 613.62
  Q 760.84 620.48 751.62 627.80
  Q 734.70 641.23 734.43 641.43
  C 728.11 645.94 717.79 653.77 708.94 659.14
  Q 690.28 670.47 671.42 678.96
  Q 642.81 691.85 611.01 694.52
  Q 593.48 696.00 577.64 693.08
  Q 549.62 687.93 525.73 674.52
  C 517.73 670.03 509.24 664.48 501.49 658.62
  Q 476.43 639.69 455.08 616.67
  C 447.27 608.24 439.82 600.68 433.63 593.51
  Q 431.98 591.60 431.63 590.89
  A 1.62 1.61 53.9 0 1 431.91 589.07
  Q 451.26 568.78 462.81 555.55
  Q 463.66 554.58 465.13 554.03
  A 2.13 2.13 0.0 0 1 467.51 554.68
  Q 489.18 581.46 516.11 605.22
  C 531.21 618.55 544.96 627.69 561.69 635.65
  Q 572.23 640.67 582.21 642.37
  Q 608.15 646.76 630.48 639.98
  Q 640.84 636.83 654.98 630.54
  C 674.98 621.63 694.47 608.43 711.96 594.69
  Q 715.33 592.04 726.72 582.46
  Q 736.01 574.63 741.06 569.79
  Q 761.99 549.69 768.35 542.85
  Q 777.88 532.58 794.21 514.36
  A 2.35 2.34 49.7 0 0 794.44 511.54
  C 791.17 506.38 785.69 503.15 781.43 499.43
  Q 771.83 491.04 766.80 487.44
  C 765.02 486.17 764.26 484.89 763.88 482.89
  A 1.14 1.14 0.0 0 1 764.79 481.56
  C 768.80 480.79 772.24 479.25 776.26 478.00
  Q 827.82 462.00 831.31 460.88
  C 847.45 455.68 861.51 451.89 877.88 446.37
  Q 882.45 444.83 887.52 444.33
  A 1.07 1.06 -88.9 0 1 888.68 445.54
  L 870.68 570.77
  A 1.59 1.59 0.0 0 1 868.60 572.04
  L 866.18 571.23
  A 2.88 2.63 -12.4 0 1 865.26 570.70
  L 836.65 546.06
  A 2.88 2.87 -40.3 0 0 833.28 545.79
  Z"/>
</svg>
